<svg width="53" height="54" viewBox="0 0 53 54" fill="none" xmlns="http://www.w3.org/2000/svg">
<path d="M30 34.5H37.5V51.375H41.25V32.625C41.25 31.5887 40.4113 30.75 39.375 30.75H28.125C27.0887 30.75 26.25 31.5887 26.25 32.625V51.375H30V34.5Z" fill="#FFB200"/>
<path d="M46.875 15.75H37.5V19.5H45V49.5H7.5V19.5H15V15.75H5.625C4.58869 15.75 3.75 16.5887 3.75 17.625V51.375C3.75 52.4113 4.58869 53.25 5.625 53.25H46.875C47.9113 53.25 48.75 52.4113 48.75 51.375V17.625C48.75 16.5887 47.9113 15.75 46.875 15.75Z" fill="#FFB200"/>
<path d="M15 15.75H3.75V12H15V8.25H1.875C0.838688 8.25 0 9.08869 0 10.125V17.625C0 18.6613 0.838688 19.5 1.875 19.5H15V15.75Z" fill="#FFB200"/>
<path d="M50.625 8.25H37.5V12H48.75V15.75H37.5V19.5H50.625C51.6613 19.5 52.5 18.6613 52.5 17.625V10.125C52.5 9.08869 51.6613 8.25 50.625 8.25Z" fill="#FFB200"/>
<path d="M37.5 27H15C13.9637 27 13.125 26.1613 13.125 25.125V2.625C13.125 1.58869 13.9637 0.75 15 0.75H37.5C38.5363 0.75 39.375 1.58869 39.375 2.625V25.125C39.375 26.1613 38.5363 27 37.5 27ZM16.875 23.25H35.625V4.5H16.875V23.25Z" fill="#FFB200"/>
<path d="M30 12H28.125V10.125C28.125 9.08869 27.2863 8.25 26.25 8.25C25.2137 8.25 24.375 9.08869 24.375 10.125V12H22.5C21.4637 12 20.625 12.8387 20.625 13.875C20.625 14.9113 21.4637 15.75 22.5 15.75H24.375V17.625C24.375 18.6613 25.2137 19.5 26.25 19.5C27.2863 19.5 28.125 18.6613 28.125 17.625V15.75H30C31.0363 15.75 31.875 14.9113 31.875 13.875C31.875 12.8387 31.0363 12 30 12Z" fill="#FFB200"/>
<path d="M20.625 42H13.125C12.0887 42 11.25 41.1613 11.25 40.125V36.375C11.25 33.2732 13.7732 30.75 16.875 30.75C19.9768 30.75 22.5 33.2732 22.5 36.375V40.125C22.5 41.1613 21.6613 42 20.625 42ZM15 38.25H18.75V36.375C18.75 35.3404 17.9096 34.5 16.875 34.5C15.8404 34.5 15 35.3404 15 36.375V38.25Z" fill="#FFB200"/>
</svg>
