<svg width="51" height="50" viewBox="0 0 51 50" fill="none" xmlns="http://www.w3.org/2000/svg">
<g clip-path="url(#clip0_32_1142)">
<path d="M39.621 2.35939C38.3791 1.17549 36.7851 0.609741 35.1809 0.609741C33.38 0.609741 31.5481 1.33265 30.1922 2.70512L29.6127 3.29183L29.0227 2.70512C27.667 1.33265 25.835 0.609741 24.0342 0.609741C22.4299 0.609741 20.836 1.17549 19.5941 2.35939C16.8617 4.96813 16.8099 9.32653 19.4492 11.9981L29.6127 22.2864L39.7762 11.9981C42.405 9.32653 42.3533 4.96813 39.621 2.35939Z" fill="#2AA7FF"/>
<path d="M49.5979 27.5249C48.0351 26.4562 46.1929 26.7601 44.5679 27.7136C42.9327 28.6565 33.5765 36.7551 33.5765 36.7551H24.3651C23.9407 36.7551 23.475 36.2627 23.475 35.8331C23.475 35.3303 23.9098 34.9321 24.3651 34.9321H29.9954C31.9722 34.9321 34.1767 33.6329 34.1767 31.3176C34.1767 28.8555 31.9722 27.7031 29.9954 27.7031C26.5696 27.7031 25.9072 27.7136 25.9072 27.7136C24.5411 27.7136 23.1438 27.6296 22.0778 27.0534C20.6495 26.3096 19.0039 25.8905 17.2444 25.8905C14.2948 25.8905 11.6555 27.0849 9.84429 28.9603L0.25 38.5466L10.9621 49.3903L14.5328 45.7757H32.6035C34.4044 45.7757 36.1432 45.1051 37.4783 43.9004L49.7118 30.0079C50.4673 29.327 50.4156 28.0906 49.5979 27.5249Z" fill="#2AA7FF"/>
</g>
<defs>
<clipPath id="clip0_32_1142">
<rect width="50" height="50" fill="white" transform="translate(0.25)"/>
</clipPath>
</defs>
</svg>
