<svg width="51" height="50" viewBox="0 0 51 50" fill="none" xmlns="http://www.w3.org/2000/svg">
<path d="M10.6171 36.1389C10.9562 35.8055 11.3229 35.5463 11.6987 35.3519C11.8453 35.0185 12.0928 34.7408 12.3953 34.5648C12.4136 33.2315 12.6153 32.0833 12.9911 31.1296C8.69225 33.3333 5.75 37.8333 5.75 43.0278C5.75 49.6759 10.5529 50 16.8407 50C17.5282 50 18.234 50 18.9489 50H32.5419C33.2569 50 33.9626 50 34.6501 50C40.9379 50 45.75 49.6759 45.75 43.0278C45.75 37.7778 42.7436 33.2315 38.3715 31.0555C38.7931 32.0463 39.0405 33.25 39.0955 34.6481C40.5255 34.9815 41.5979 36.2685 41.5979 37.8148C41.5979 39.6111 40.1496 41.0648 38.3806 41.0648C36.6024 41.0648 35.1634 39.6111 35.1634 37.8148C35.1634 36.287 36.2083 35.0093 37.6106 34.6574C37.5465 33.2685 37.2257 31.1574 35.8784 30.1111C35.1909 29.9259 34.4851 29.7963 33.761 29.7315C33.706 32.1666 25.75 38.1666 25.75 38.1666C25.75 38.1666 17.794 32.1666 17.739 29.7315C16.9324 29.8055 16.1533 29.9536 15.3925 30.1666C14.4118 30.9536 13.9076 32.4166 13.8801 34.537C14.1643 34.7036 14.4026 34.9629 14.5401 35.287C15.5942 35.787 16.5291 36.8519 17.244 38.3611C17.3632 38.6204 17.3815 38.9074 17.2899 39.1666C17.7207 40.2778 17.959 41.5 17.959 42.5185C17.959 43.9536 17.959 45.3055 16.41 45.6574C16.245 45.7963 16.0341 45.8796 15.8142 45.8796H14.7968C14.2743 45.8796 13.8527 45.4536 13.8527 44.9259V44.8611C13.8893 44.3704 14.3018 43.9815 14.7876 43.9815H15.8233C15.9333 43.9815 16.0341 44 16.135 44.037C16.1991 44.0185 16.2175 44 16.2175 44C16.3366 43.7963 16.3366 42.9351 16.3366 42.5278C16.3366 41.6944 16.135 40.6944 15.7683 39.7593C15.585 39.6481 15.4292 39.4908 15.3375 39.2963C14.7143 37.9721 13.8618 37.1111 13.1652 37.1111C12.4594 37.1111 11.5612 38.037 10.9379 39.4166C10.8371 39.6389 10.6538 39.824 10.4338 39.9351C10.1038 40.824 9.92965 41.75 9.92965 42.5278C9.92965 42.8704 9.92965 43.787 10.058 44.0093C10.058 44.0093 10.0855 44.0278 10.168 44.0463C10.2779 44.0093 10.3879 43.9815 10.5071 43.9815H11.5429C12.0195 43.9815 12.4228 44.3425 12.4778 44.824L12.4869 44.8333V44.8981C12.4869 45.4629 12.0653 45.8889 11.552 45.8889H10.5071C10.3054 45.8889 10.1038 45.8148 9.93881 45.6944C9.34304 45.5833 8.93056 45.3148 8.66476 44.8889C8.34395 44.3704 8.28895 43.6851 8.28895 42.537C8.28895 41.5278 8.5181 40.3611 8.93974 39.2408C8.87558 39 8.8939 38.75 9.0039 38.5278C9.44386 37.5648 10.003 36.7408 10.6171 36.1389ZM32.1845 44H39.1139C39.6639 44 40.1037 44.4444 40.1037 45C40.1037 45.5555 39.6639 46 39.1139 46H32.1845C31.6345 46 31.1945 45.5555 31.1945 45C31.1945 44.4444 31.6345 44 32.1845 44Z" fill="#4CD080"/>
<path d="M35.5666 14.6482C35.1084 14.6482 34.43 14.4909 33.7243 13.7316C33.1926 13.315 29.6913 10.6668 25.75 10.6668C21.8361 10.6668 18.298 13.3242 17.7756 13.7316C17.0698 14.4816 16.3916 14.639 15.9333 14.639C15.8691 14.639 15.8141 14.639 15.7591 14.6297C15.475 14.602 15.1725 14.5001 14.8975 14.3242C14.8059 14.9075 14.7509 15.5001 14.7509 16.1112C14.7509 22.2501 19.6821 31.4909 25.7591 31.4909C31.8361 31.4909 36.7674 22.2501 36.7674 16.1112C36.7674 15.5001 36.7124 14.9075 36.6208 14.3242C36.3458 14.5094 36.0341 14.6112 35.75 14.639C35.6858 14.6482 35.6308 14.6482 35.5666 14.6482Z" fill="#4CD080"/>
<path d="M38.3805 39.3241C39.2006 39.3241 39.8654 38.6526 39.8654 37.8241C39.8654 36.9957 39.2006 36.3241 38.3805 36.3241C37.5604 36.3241 36.8956 36.9957 36.8956 37.8241C36.8956 38.6526 37.5604 39.3241 38.3805 39.3241Z" fill="#4CD080"/>
<path d="M34.1641 1.67593C34.1641 1.67593 30.1404 0.212963 26.5106 0.0277778C26.254 0.0185185 26.0065 0 25.7499 0C25.4933 0 25.2458 0.0185185 24.9891 0.0185185C21.3594 0.212963 17.3356 1.66666 17.3356 1.66666C16.2448 2.06481 15.3557 3.35185 15.3557 4.52777V12.0741C15.3557 12.75 15.5665 13.1111 15.8873 13.1389C15.9057 13.1389 15.9148 13.1389 15.9332 13.1389C16.1623 13.1389 16.4465 12.9815 16.7581 12.6296C16.7581 12.6296 20.9011 9.16666 25.7499 9.16666C30.5986 9.16666 34.7416 12.6296 34.7416 12.6296C35.0532 12.9815 35.3374 13.1389 35.5665 13.1389C35.5849 13.1389 35.594 13.1389 35.6124 13.1389C35.9331 13.1111 36.144 12.75 36.144 12.0741V4.53704C36.144 3.36111 35.2549 2.06481 34.1641 1.67593ZM28.353 5.63889H26.7856V7.24074C26.7856 7.40741 26.6665 7.53704 26.529 7.53704H24.9799C24.8333 7.53704 24.7233 7.40741 24.7233 7.24074V5.63889H23.1559C23.0001 5.63889 22.8718 5.51851 22.8718 5.37037V3.78704C22.8718 3.63889 23.0001 3.51851 23.1559 3.51851H24.7233V1.92593C24.7233 1.75926 24.8424 1.62962 24.9799 1.62962H26.529C26.6756 1.62962 26.7856 1.75926 26.7856 1.92593V3.52778H28.353C28.5087 3.52778 28.6371 3.64815 28.6371 3.7963V5.37037C28.6371 5.51851 28.5087 5.63889 28.353 5.63889Z" fill="#4CD080"/>
</svg>
