<svg width="50" height="54" viewBox="0 0 50 54" fill="none" xmlns="http://www.w3.org/2000/svg">
<path d="M47.25 53.25H24.75C23.7146 53.25 22.875 52.4104 22.875 51.375V2.625C22.875 1.58962 23.7146 0.75 24.75 0.75H47.25C48.2854 0.75 49.125 1.58962 49.125 2.625V51.375C49.125 52.4104 48.2854 53.25 47.25 53.25ZM26.625 49.5H45.375V4.5H26.625V49.5Z" fill="#FF684C"/>
<path d="M39.75 53.25H32.25C31.2146 53.25 30.375 52.4104 30.375 51.375V40.125C30.375 39.0896 31.2146 38.25 32.25 38.25H39.75C40.7854 38.25 41.625 39.0896 41.625 40.125V51.375C41.625 52.4104 40.7854 53.25 39.75 53.25ZM34.125 49.5H37.875V42H34.125V49.5Z" fill="#FF684C"/>
<path d="M24.75 53.25H2.25C1.21462 53.25 0.375 52.4104 0.375 51.375V21.375C0.375 20.3396 1.21462 19.5 2.25 19.5H24.75C25.7854 19.5 26.625 20.3396 26.625 21.375V51.375C26.625 52.4104 25.7854 53.25 24.75 53.25ZM4.125 49.5H22.875V23.25H4.125V49.5Z" fill="#FF684C"/>
<path d="M39.75 12H37.875V10.125C37.875 9.08962 37.0354 8.25 36 8.25C34.9646 8.25 34.125 9.08962 34.125 10.125V12H32.25C31.2146 12 30.375 12.8396 30.375 13.875C30.375 14.9104 31.2146 15.75 32.25 15.75H34.125V17.625C34.125 18.6604 34.9646 19.5 36 19.5C37.0354 19.5 37.875 18.6604 37.875 17.625V15.75H39.75C40.7854 15.75 41.625 14.9104 41.625 13.875C41.625 12.8396 40.7854 12 39.75 12Z" fill="#FF684C"/>
<path d="M9.75 34.5C8.71462 34.5 7.875 33.6604 7.875 32.625V28.875C7.875 27.8396 8.71462 27 9.75 27C10.7854 27 11.625 27.8396 11.625 28.875V32.625C11.625 33.6604 10.7854 34.5 9.75 34.5Z" fill="#FF684C"/>
<path d="M9.75 45.75C8.71462 45.75 7.875 44.9104 7.875 43.875V40.125C7.875 39.0896 8.71462 38.25 9.75 38.25C10.7854 38.25 11.625 39.0896 11.625 40.125V43.875C11.625 44.9104 10.7854 45.75 9.75 45.75Z" fill="#FF684C"/>
<path d="M17.25 34.5C16.2146 34.5 15.375 33.6604 15.375 32.625V28.875C15.375 27.8396 16.2146 27 17.25 27C18.2854 27 19.125 27.8396 19.125 28.875V32.625C19.125 33.6604 18.2854 34.5 17.25 34.5Z" fill="#FF684C"/>
<path d="M17.25 45.75C16.2146 45.75 15.375 44.9104 15.375 43.875V40.125C15.375 39.0896 16.2146 38.25 17.25 38.25C18.2854 38.25 19.125 39.0896 19.125 40.125V43.875C19.125 44.9104 18.2854 45.75 17.25 45.75Z" fill="#FF684C"/>
<path d="M39.75 34.5H32.25C31.2146 34.5 30.375 33.6604 30.375 32.625C30.375 31.5896 31.2146 30.75 32.25 30.75H39.75C40.7854 30.75 41.625 31.5896 41.625 32.625C41.625 33.6604 40.7854 34.5 39.75 34.5Z" fill="#FF684C"/>
</svg>
