<svg width="25" height="24" viewBox="0 0 25 24" fill="none" xmlns="http://www.w3.org/2000/svg">
<path d="M18.1569 16.6569C17.2202 17.5935 15.2616 19.5521 13.9138 20.8999C13.1327 21.681 11.8677 21.6814 11.0866 20.9003C9.76234 19.576 7.84159 17.6553 6.84315 16.6569C3.71895 13.5327 3.71895 8.46734 6.84315 5.34315C9.96734 2.21895 15.0327 2.21895 18.1569 5.34315C21.281 8.46734 21.281 13.5327 18.1569 16.6569Z" stroke="#9CA3AF" stroke-width="2" stroke-linecap="round" stroke-linejoin="round"/>
<path d="M15.5 11C15.5 12.6569 14.1569 14 12.5 14C10.8431 14 9.5 12.6569 9.5 11C9.5 9.34315 10.8431 8 12.5 8C14.1569 8 15.5 9.34315 15.5 11Z" stroke="#9CA3AF" stroke-width="2" stroke-linecap="round" stroke-linejoin="round"/>
</svg>
