<svg width="127" height="36" viewBox="0 0 127 36" fill="none" xmlns="http://www.w3.org/2000/svg">
<path d="M25.5775 3H5.1155C2.29029 3 0 5.27302 0 8.07692V28.3846C0 31.1885 2.29029 33.4615 5.1155 33.4615H25.5775C28.4027 33.4615 30.693 31.1885 30.693 28.3846V8.07692C30.693 5.27302 28.4027 3 25.5775 3Z" fill="#2AA8FF"/>
<path fill-rule="evenodd" clip-rule="evenodd" d="M7.82369 13.3613C10.5488 13.3246 13.0317 12.2927 14.9202 10.6152C16.8086 12.2927 19.2915 13.3246 22.0166 13.3613C22.1156 13.9464 22.1671 14.5474 22.1671 15.1603C22.1671 19.8578 19.1422 23.8539 14.9202 25.3349C10.6981 23.8539 7.67322 19.8578 7.67322 15.1603C7.67322 14.5474 7.72473 13.9464 7.82369 13.3613ZM18.2406 16.6577C18.5736 16.3273 18.5736 15.7915 18.2406 15.4611C17.9077 15.1307 17.3679 15.1307 17.0349 15.4611L14.0143 18.4589L12.8054 17.2592C12.4725 16.9287 11.9326 16.9287 11.5997 17.2592C11.2668 17.5896 11.2668 18.1254 11.5997 18.4558L13.4114 20.2539C13.7444 20.5843 14.2842 20.5843 14.6172 20.2539L18.2406 16.6577Z" fill="white"/>
<path d="M60.3369 9.152V26H56.2329V15.896L52.4649 26H49.1529L45.3609 15.872V26H41.2569V9.152H46.1049L50.8329 20.816L55.5129 9.152H60.3369ZM76.3921 19.088C76.3921 19.472 76.3681 19.872 76.3201 20.288H67.0321C67.0961 21.12 67.3601 21.76 67.8241 22.208C68.3041 22.64 68.8881 22.856 69.5761 22.856C70.6001 22.856 71.3121 22.424 71.7121 21.56H76.0801C75.8561 22.44 75.4481 23.232 74.8561 23.936C74.2801 24.64 73.5521 25.192 72.6721 25.592C71.7921 25.992 70.8081 26.192 69.7201 26.192C68.4081 26.192 67.2401 25.912 66.2161 25.352C65.1921 24.792 64.3921 23.992 63.8161 22.952C63.2401 21.912 62.9521 20.696 62.9521 19.304C62.9521 17.912 63.2321 16.696 63.7921 15.656C64.3681 14.616 65.1681 13.816 66.1921 13.256C67.2161 12.696 68.3921 12.416 69.7201 12.416C71.0161 12.416 72.1681 12.688 73.1761 13.232C74.1841 13.776 74.9681 14.552 75.5281 15.56C76.1041 16.568 76.3921 17.744 76.3921 19.088ZM72.1921 18.008C72.1921 17.304 71.9521 16.744 71.4721 16.328C70.9921 15.912 70.3921 15.704 69.6721 15.704C68.9841 15.704 68.4001 15.904 67.9201 16.304C67.4561 16.704 67.1681 17.272 67.0561 18.008H72.1921ZM78.2212 19.28C78.2212 17.904 78.4772 16.696 78.9892 15.656C79.5172 14.616 80.2292 13.816 81.1252 13.256C82.0212 12.696 83.0212 12.416 84.1252 12.416C85.0052 12.416 85.8052 12.6 86.5252 12.968C87.2612 13.336 87.8372 13.832 88.2532 14.456V8.24H92.3572V26H88.2532V24.08C87.8692 24.72 87.3172 25.232 86.5972 25.616C85.8932 26 85.0692 26.192 84.1252 26.192C83.0212 26.192 82.0212 25.912 81.1252 25.352C80.2292 24.776 79.5172 23.968 78.9892 22.928C78.4772 21.872 78.2212 20.656 78.2212 19.28ZM88.2532 19.304C88.2532 18.28 87.9652 17.472 87.3892 16.88C86.8292 16.288 86.1412 15.992 85.3252 15.992C84.5092 15.992 83.8132 16.288 83.2372 16.88C82.6772 17.456 82.3972 18.256 82.3972 19.28C82.3972 20.304 82.6772 21.12 83.2372 21.728C83.8132 22.32 84.5092 22.616 85.3252 22.616C86.1412 22.616 86.8292 22.32 87.3892 21.728C87.9652 21.136 88.2532 20.328 88.2532 19.304ZM97.8702 11.216C97.1502 11.216 96.5582 11.008 96.0942 10.592C95.6462 10.16 95.4222 9.632 95.4222 9.008C95.4222 8.368 95.6462 7.84 96.0942 7.424C96.5582 6.992 97.1502 6.776 97.8702 6.776C98.5742 6.776 99.1502 6.992 99.5982 7.424C100.062 7.84 100.294 8.368 100.294 9.008C100.294 9.632 100.062 10.16 99.5982 10.592C99.1502 11.008 98.5742 11.216 97.8702 11.216ZM99.9102 12.608V26H95.8062V12.608H99.9102ZM110.084 16.016H107.876V26H103.772V16.016H102.284V12.608H103.772V12.224C103.772 10.576 104.244 9.328 105.188 8.48C106.132 7.616 107.516 7.184 109.34 7.184C109.644 7.184 109.868 7.192 110.012 7.208V10.688C109.228 10.64 108.676 10.752 108.356 11.024C108.036 11.296 107.876 11.784 107.876 12.488V12.608H110.084V16.016ZM126.173 12.608L117.773 32.36H113.357L116.429 25.544L110.981 12.608H115.565L118.661 20.984L121.733 12.608H126.173Z" fill="#2AA8FF"/>
</svg>
