<svg width="17" height="17" viewBox="0 0 17 17" fill="none" xmlns="http://www.w3.org/2000/svg">
<path d="M16.18 8.58997C16.18 4.30872 12.7112 0.839966 8.42999 0.839966C4.14874 0.839966 0.679993 4.30872 0.679993 8.58997C0.679993 11.9025 2.71124 14.6837 5.58624 15.8087C5.52374 15.215 5.46124 14.2775 5.61749 13.59C5.77374 12.9962 6.52374 9.74622 6.52374 9.74622C6.52374 9.74622 6.30499 9.27747 6.30499 8.58997C6.30499 7.52747 6.92999 6.71497 7.71124 6.71497C8.36749 6.71497 8.67999 7.21497 8.67999 7.80872C8.67999 8.46497 8.24249 9.46497 8.02374 10.4025C7.86749 11.1525 8.42999 11.7775 9.17999 11.7775C10.555 11.7775 11.6175 10.34 11.6175 8.24622C11.6175 6.37122 10.2737 5.08997 8.39874 5.08997C6.17999 5.08997 4.89874 6.74622 4.89874 8.43372C4.89874 9.12122 5.14874 9.83997 5.46124 10.215C5.52374 10.2775 5.52374 10.3712 5.52374 10.4337C5.46124 10.6837 5.30499 11.215 5.30499 11.3087C5.27374 11.465 5.17999 11.4962 5.02374 11.4337C4.05499 10.965 3.46124 9.55872 3.46124 8.40247C3.46124 5.96497 5.24249 3.71497 8.58624 3.71497C11.2737 3.71497 13.3675 5.65247 13.3675 8.21497C13.3675 10.8712 11.68 13.0275 9.33624 13.0275C8.55499 13.0275 7.80499 12.6212 7.55499 12.1212C7.55499 12.1212 7.17999 13.6212 7.08624 13.965C6.89874 14.6525 6.42999 15.4962 6.11749 15.9962C6.83624 16.2462 7.61749 16.34 8.42999 16.34C12.7112 16.34 16.18 12.8712 16.18 8.58997Z" fill="#2AA7FF"/>
</svg>
